<svg xmlns="http://www.w3.org/2000/svg" viewBox="0 0 512.002 512.002" xml:space="preserve" width="800" height="800" fill="#fff"><path style="fill:#ff9eca" d="M27.047 123.075h150.591v150.336H27.047z"/><path style="fill:#ffe97c" d="m10.201 123.074 92.14-91.919 92.14 91.919z"/><circle style="fill:#fff6cc" cx="102.341" cy="198.11" r="42"/><path style="fill:#ff9eca" d="M334.373 123.075h150.591v150.336H334.373z"/><path style="fill:#ffe97c" d="m317.524 123.074 92.139-91.919 92.14 91.919z"/><circle style="fill:#fff6cc" cx="409.663" cy="198.11" r="42"/><path style="fill:#fff" d="M154.541 198.111c0-28.783-23.417-52.2-52.201-52.2s-52.2 23.416-52.2 52.2 23.416 52.2 52.2 52.2 52.201-23.417 52.201-52.2zm-84.001 0c0-17.535 14.266-31.801 31.801-31.801s31.802 14.266 31.802 31.801-14.266 31.801-31.802 31.801c-17.535 0-31.801-14.265-31.801-31.801z"/><path style="fill:#fff" d="M495.157 133.273h6.646a10.2 10.2 0 0 0 7.203-17.42l-92.14-91.918c-3.98-3.972-10.427-3.972-14.406 0l-92.141 91.918a10.2 10.2 0 0 0 7.203 17.42h6.648v83.399c-.018.016-.039.031-.057.048-1.567.98-14.758 8.072-68.111 8.072-53.3 0-66.592-7.143-68.168-8.127v-83.392h6.648a10.2 10.2 0 0 0 7.203-17.42l-92.141-91.918c-3.98-3.972-10.427-3.972-14.406 0l-92.14 91.918a10.2 10.2 0 0 0 7.203 17.42h6.647v337.375h-3.63c-5.632 0-10.199 4.566-10.199 10.199s4.567 10.199 10.199 10.199h27.658c5.632 0 10.199-4.566 10.199-10.199s-4.567-10.199-10.199-10.199h-3.631V283.604h27.749v197.243c0 5.633 4.567 10.199 10.199 10.199s10.199-4.566 10.199-10.199v-37.948h33.895v37.948c0 5.633 4.567 10.199 10.199 10.199s10.199-4.566 10.199-10.199V283.604h27.748v187.044h-3.63c-5.632 0-10.199 4.566-10.199 10.199s4.567 10.199 10.199 10.199h27.658c5.632 0 10.199-4.566 10.199-10.199s-4.567-10.199-10.199-10.199h-3.631V286.094c11.766 3.543 32.313 6.73 68.168 6.73 35.628 0 56.245-3.024 68.168-6.613v184.437h-3.631c-5.632 0-10.199 4.566-10.199 10.199s4.567 10.199 10.199 10.199h27.658c5.632 0 10.199-4.566 10.199-10.199s-4.567-10.199-10.199-10.199h-3.63V283.604h27.748v197.243c0 5.633 4.567 10.199 10.199 10.199s10.199-4.566 10.199-10.199v-37.948h33.895v37.948c0 5.633 4.567 10.199 10.199 10.199s10.199-4.566 10.199-10.199V283.604h27.749v132.524c0 5.633 4.567 10.199 10.199 10.199s10.199-4.566 10.199-10.199V133.273h.008zm-85.494-87.712 67.474 67.313H342.188l67.475-67.313zm-163.86 226.771c-7.382-.138-13.868-.423-19.554-.808v-27.211c5.861.38 12.356.652 19.554.783v27.236zm20.398-27.232c7.189-.127 13.687-.388 19.554-.758v27.189c-5.684.381-12.17.664-19.554.802V245.1zm-60.351-2.848v27.056c-12.718-2.057-17.148-4.468-18.017-5.011v-25.84c4.561 1.375 10.439 2.695 18.017 3.795zM102.341 45.561l67.475 67.313H34.867l67.474-67.313zm-65.095 87.712h130.189v129.934H37.246V133.273zm48.148 229.723h33.895v19.553H85.394v-19.553zm33.895-20.399H85.394v-19.553h33.895v19.553zm-33.895 79.904v-19.554h33.895v19.554H85.394zm33.895-119.856H85.394v-19.041h33.895v19.041zm186.864-33.313v-27c7.536-1.074 13.423-2.372 18.017-3.755v25.73c-.018.016-.039.031-.057.048-.863.538-5.259 2.934-17.96 4.977zm86.562 93.664h33.895v19.553h-33.895v-19.553zm33.896-20.399h-33.895v-19.553h33.895v19.553zm-33.896 79.904v-19.554h33.895v19.554h-33.895zm33.896-119.856h-33.895v-19.041h33.895v19.041zm48.148-39.439h-130.19V133.273h130.189v129.933h.001z"/><path style="fill:#fff" d="M409.663 250.311c28.783 0 52.2-23.416 52.2-52.2s-23.416-52.2-52.2-52.2-52.201 23.416-52.201 52.2 23.419 52.2 52.201 52.2zm0-84.001c17.534 0 31.801 14.266 31.801 31.801s-14.266 31.801-31.801 31.801-31.802-14.266-31.802-31.801 14.267-31.801 31.802-31.801zM495.157 450.806v-4.08c0-5.633-4.567-10.199-10.199-10.199s-10.199 4.566-10.199 10.199v4.08c0 5.633 4.567 10.199 10.199 10.199s10.199-4.566 10.199-10.199zM498.786 470.648h-27.658c-5.632 0-10.199 4.566-10.199 10.199s4.567 10.199 10.199 10.199h27.658c5.632 0 10.199-4.566 10.199-10.199s-4.566-10.199-10.199-10.199z"/></svg>