<svg xmlns="http://www.w3.org/2000/svg" viewBox="0 0 511.997 511.997" xml:space="preserve"><path style="fill:#ff9eca" d="m289.493 130.735-93.359-72.41-93.358 72.41z"/><path style="fill:#ffe97c" d="M122.421 130.731H269.85v33.519H122.421zM122.421 283.566H269.85v97.882H122.421z"/><path style="fill:#4d1e1e" d="M112.218 273.368h-59.76C23.532 273.368 0 296.96 0 325.958v127.713c0 5.632 4.567 10.199 10.199 10.199s10.199-4.567 10.199-10.199v-13.277h43.458v12.338c0 5.632 4.567 10.199 10.199 10.199s10.199-4.567 10.199-10.199v-138.98c0-5.632-4.567-10.199-10.199-10.199s-10.199 4.567-10.199 10.199v2.008H22.057c4.259-12.765 16.273-21.992 30.4-21.992h59.761v149.706h-5.294c-5.632 0-10.199 4.567-10.199 10.199s4.567 10.199 10.199 10.199h30.05c5.632 0 10.199-4.567 10.199-10.199s-4.567-10.199-10.199-10.199h-4.356v-6.834h64.227c5.632 0 10.199-4.567 10.199-10.199s-4.567-10.199-10.199-10.199h-64.228v-24.591h127.036v51.825h-5.295c-5.632 0-10.199 4.567-10.199 10.199s4.567 10.199 10.199 10.199h30.05c5.632 0 10.199-4.567 10.199-10.199s-4.567-10.199-10.199-10.199h-4.356V295.419a25.54 25.54 0 0 1 11.292 8.572l.675.906c9.755 13.107 25.334 20.931 41.672 20.931 9.923 0 19.385 4.752 25.309 12.712l10.606 14.249c9.755 13.107 25.334 20.931 41.673 20.931h2.796c9.923 0 19.385 4.752 25.309 12.712l54.234 72.86a10.18 10.18 0 0 0 8.189 4.11c2.117 0 4.253-.658 6.082-2.018 4.519-3.364 5.456-9.753 2.092-14.271l-54.234-72.86c-9.755-13.107-25.334-20.931-41.672-20.931h-2.796c-9.923 0-19.386-4.752-25.31-12.712l-10.606-14.249c-9.754-13.107-25.334-20.931-41.672-20.931-9.923 0-19.385-4.752-25.315-12.72l-.675-.906a45.89 45.89 0 0 0-27.648-17.538V140.935h9.442a10.2 10.2 0 0 0 6.251-18.259l-93.358-72.41a10.195 10.195 0 0 0-12.502 0l-93.358 72.411a10.2 10.2 0 0 0 6.251 18.259h9.442v132.432h-.003zM63.856 385.25H20.398v-14.346h43.458v14.346zm-43.458 34.745v-14.347h43.458v14.347H20.398zm43.458-69.49H20.398v-14.347h43.458v14.347zm142.478-77.137v-23.604h15.286v23.604h-15.286zm-36.624 0v-23.604h16.225v23.604H169.71zm-37.094 0v-23.604h16.695v23.604h-16.695zm127.036-44.002H132.616v-54.913h127.036v54.913zm-17.635 20.398h17.634v23.604h-17.634v-23.604zM196.134 71.232l63.566 49.304H132.568l63.566-49.304zm63.518 69.703v13.119H132.616v-13.119h127.036zM132.616 371.249v-77.483h127.036v77.483H132.616z"/><path style="fill:#4d1e1e" d="M235.601 416.239h-4.08c-5.632 0-10.199 4.567-10.199 10.199s4.567 10.199 10.199 10.199h4.08c5.632 0 10.199-4.567 10.199-10.199s-4.567-10.199-10.199-10.199z"/></svg>